<?xml version="1.0" encoding="UTF-8"?>
<svg xmlns="http://www.w3.org/2000/svg" version="1.1" viewBox="0 0 160 160">
  <defs>
    <style>
      .cls-1 {
        stroke-width: .53px;
      }

      .cls-1, .cls-2 {
        stroke-miterlimit: 10;
      }

      .cls-1, .cls-2, .cls-3 {
        fill: #fff;
        stroke: #fff;
      }

      .cls-2 {
        stroke-width: .44px;
      }

      .cls-3 {
        stroke-miterlimit: 10;
        stroke-width: .53px;
      }
    </style>
  </defs>
  <!-- Generator: Adobe Illustrator 28.7.1, SVG Export Plug-In . SVG Version: 1.2.0 Build 142)  -->
  <g>
    <g id="Layer_1">
      <g id="Layer_1-2" data-name="Layer_1">
        <g id="sauttoworks">
          <path class="cls-2" d="M149.46,86.99s-1.7-1.38-5.54,1.43c-.34.25-.57.64-.56,1.07.01.62.48,1.27,2.75.64,2.28-.63,3.61.43,4.2,1.51.29.53-.09,1.44-.69,1.44l-.36-.06c-.65-.11-1.13.62-.76,1.16.31.45.75.92,1.39,1.24,1.16.57,2.53-.32,2.52-1.62,0-1.5-.71-3.55-3.78-5.27l.83-1.53h0Z"/>
          <path class="cls-1" d="M68.75,61.12c-.82,2.37-2.09,7.62,6.03-.14v1.09s-1.78,1.87-1.78,1.87c-1.1,1.15-2.41,2.08-3.88,2.69-4.24,1.75-2.94-1.87-2.94-1.87l-1.18,1c-.58.49-1.24.86-1.97,1.06-2,.54-1.43-1.04-1.43-1.04-6.31,2.91-5.2.26-5.2.26,1.18-2.43,5.1-4.78,7.06-5.84.39-.21.82.18.65.59l-1.26,3.04s-1.01,2.77,5.47-2.98c.2-.18.51.02.42.28h0Z"/>
          <path class="cls-1" d="M83.83,62.91c2.6-1.75,4.46-1.42,5.09-.34.62,1.08-.65,2.98-2.84,4.24-2.19,1.26-4.46,1.42-5.09.34-.62-1.08.74-2.83,2.84-4.24Z"/>
          <path class="cls-1" d="M99.41,104.23c10.9-12.88,30.45-32.84,59.02-50.54l.48,2.32s-25.8,17.36-47.72,38.39c0,0,4.89-.29,24.28-10.23v2.02s-24.28,11.1-24.28,11.1c0,0,30.46-4.92,36.34-2.7l1.54,2.51s-13.54-3.77-44.95,4.44c0,0-10.32,10.51-12.93,18.23l-2.22-1.93s3.44-5.35,10.43-13.6"/>
          <ellipse class="cls-3" cx="99.61" cy="86.62" rx="3.91" ry="2.63" transform="translate(-32.08 95.8) rotate(-45)"/>
          <path class="cls-1" d="M105.22,87.94c-.24,2.4-1.76,1.9-1.95,1.83-.01,0-.03-.01-.04-.02-1.85-1.45-.15-3.37,0-3.54,0,0,.02-.02.03-.02,7.25-4.6,12.31-4.88,13.96-4.82.15,0,.18.21.04.27-2.39.97-11.91,4.93-12.05,6.3h0Z"/>
          <path class="cls-1" d="M35.19,81.49c-15.31,4.27-23.95,4.71-23.95,4.71-14.79,1.16-9.07-5.14-9.07-5.14,14.16-14.94,49.46-23.91,49.46-23.91-7.46-4.86-34.43.34-34.43.34l.5-2.43c5.78.84,27.84-8.39,27.84-8.39l-.08,2.1c-.42.76-11.57,4.44-11.57,4.44,12.32-1.56,20.96,3.02,20.96,3.02,9.91-2.46,18.51-2.8,21.04-2.84.42,0,.76-.35.77-.76l.29-11.83c.01-.52.67-.75,1-.35h0c.51.61.79,1.39.79,2.19v9.89c0,.38.32.67.69.65l2.42-.16c.41-.03.77-.31.87-.72l3.09-11.54c.15-.57.9-.69,1.23-.2h0c.39.59.59,1.29.55,2-.16,3.06-1.49,7.98-2.05,9.92-.12.41.2.81.62.79,22.95-.74,46.15,5.31,46.15,5.31,10.4-4.78,9.14-2.85,9.14-2.85l-6.46,3.52,9.13,2.42-2.17,1.52-9.98-2.43-24.07,13.08c-20.29,11.24-27,20.46-27,20.46-1.7,1.87-2.54,1.45-2.94.64-.41-.81-.31-1.78.18-2.55l6.13-9.59-16.47,14.58c-4.41,4.19-3.32-2.1-3.32-2.1l11.75-39.19c.12-.39-.19-.79-.6-.77-15.45.76-19.12,2.99-19.12,2.99,7.17,6.99-.71,13.59-8,17.69-4.2,2.36-8.69,4.17-13.34,5.47h0ZM33.97,64.94c-2.9,1.05-5.75,2.26-8.53,3.61-43.59,21.28-10.32,14.98-10.32,14.98,10.82-1.1,26.42-4.7,38.24-13.96,5.07-3.97,3.55-7.59.74-10.82-.65-.75-13.3,3.7-20.14,6.19h0ZM78.55,55.98c-.44,2.58-2.25,11.16-9.2,30.21,0,0,10.98-24.61,12.28-30.12.12-.5-.26-.97-.78-.97h-1.25c-.52,0-.97.37-1.05.89h0ZM87.17,77.89l2.22,1.15c-.29,1.91-3.43,6.49-3.43,6.49,6.96-7.06,43.12-25.47,43.12-25.47-19.27-5.72-44.27-4.96-44.27-4.96,0,0-6.77,19.94-15.46,36.63l17.82-13.83h0Z"/>
        </g>
      </g>
    </g>
  </g>
</svg>